<svg xmlns="http://www.w3.org/2000/svg">
  <symbol viewBox="0 0 22 19" id="airplane">
    <path d="M0 19V11.6276L15.7143 9.5L0 7.3724V0L22 9.5L0 19Z" />
  </symbol>

  <symbol viewBox="0 0 10 7" id="chevron-down">
    <path
      d="M1.175 0.580078L5 4.29167L8.825 0.580078L10 1.72833L5 6.58008L0 1.72833L1.175 0.580078Z"
    />
  </symbol>

  <symbol viewBox="0 0 24 21" id="cart">
    <path
      d="M22.7989 4.79978H6.55409L4.69178 0.703167C4.59644 0.493535 4.44279 0.315766 4.24916 0.191081C4.05554 0.0663969 3.83013 6.37684e-05 3.59983 0H0V2.39989H2.82707L8.5076 14.8961C8.60295 15.1057 8.7566 15.2835 8.95022 15.4082C9.14385 15.5329 9.36926 15.5992 9.59955 15.5993H19.1991C19.6791 15.5993 20.1135 15.3137 20.3019 14.8721L23.9017 6.4725C23.9806 6.29003 24.0128 6.0908 23.9954 5.89277C23.9781 5.69474 23.9117 5.50414 23.8023 5.33818C23.6929 5.17221 23.5439 5.03609 23.3687 4.9421C23.1935 4.8481 22.9977 4.79919 22.7989 4.79978Z"
    />
    <path
      d="M10.1995 20.3991C11.1935 20.3991 11.9993 19.5933 11.9993 18.5992C11.9993 17.6052 11.1935 16.7993 10.1995 16.7993C9.20542 16.7993 8.3996 17.6052 8.3996 18.5992C8.3996 19.5933 9.20542 20.3991 10.1995 20.3991Z"
    />
    <path
      d="M18.5991 20.3991C19.5932 20.3991 20.3991 19.5933 20.3991 18.5992C20.3991 17.6052 19.5932 16.7993 18.5991 16.7993C17.6051 16.7993 16.7992 17.6052 16.7992 18.5992C16.7992 19.5933 17.6051 20.3991 18.5991 20.3991Z"
    />
  </symbol>

  <symbol viewBox="0 0 14 20" id="location">
    <path
      d="M7 9.5C6.33696 9.5 5.70107 9.23661 5.23223 8.76777C4.76339 8.29893 4.5 7.66304 4.5 7C4.5 6.33696 4.76339 5.70107 5.23223 5.23223C5.70107 4.76339 6.33696 4.5 7 4.5C7.66304 4.5 8.29893 4.76339 8.76777 5.23223C9.23661 5.70107 9.5 6.33696 9.5 7C9.5 7.3283 9.43534 7.65339 9.3097 7.95671C9.18406 8.26002 8.99991 8.53562 8.76777 8.76777C8.53562 8.99991 8.26002 9.18406 7.95671 9.3097C7.65339 9.43534 7.3283 9.5 7 9.5ZM7 0C5.14348 0 3.36301 0.737498 2.05025 2.05025C0.737498 3.36301 0 5.14348 0 7C0 12.25 7 20 7 20C7 20 14 12.25 14 7C14 5.14348 13.2625 3.36301 11.9497 2.05025C10.637 0.737498 8.85652 0 7 0Z"
    />
  </symbol>

  <symbol viewBox="0 0 20 18" id="credit-card">
    <path
      d="M11.5 13.8889H2V7.93651H12.3C13.3 6.74603 14.8 5.95238 16.5 5.95238C17.8 5.95238 19 6.44841 20 7.24206V1.98413C20 1.4579 19.7893 0.953233 19.4142 0.581137C19.0391 0.209041 18.5304 0 18 0H2C1.46957 0 0.960859 0.209041 0.585786 0.581137C0.210714 0.953233 0 1.4579 0 1.98413V13.8889C0 14.4151 0.210714 14.9198 0.585786 15.2919C0.960859 15.664 1.46957 15.873 2 15.873H12.6C12.2 15.2778 11.8 14.5833 11.5 13.8889ZM2 1.98413H18V3.96825H2V1.98413ZM16.5 7.93651C14.6 7.93651 13 9.52381 13 11.4087C13 13.9881 16.5 17.8571 16.5 17.8571C16.5 17.8571 20 13.9881 20 11.4087C20 9.52381 18.4 7.93651 16.5 7.93651ZM16.5 12.6984C15.8 12.6984 15.3 12.1032 15.3 11.5079C15.3 10.8135 15.9 10.3175 16.5 10.3175C17.1 10.3175 17.7 10.9127 17.7 11.5079C17.8 12.1032 17.2 12.6984 16.5 12.6984Z"
    />
  </symbol>

  <symbol viewBox="0 0 20 20" id="desk-arrow-left">
    <path
      d="M14.4444 14H10V17L4.44444 12L10 7V10H14.4444V14ZM10 2C10.2947 2 10.5773 2.10536 10.7857 2.29289C10.994 2.48043 11.1111 2.73478 11.1111 3C11.1111 3.26522 10.994 3.51957 10.7857 3.70711C10.5773 3.89464 10.2947 4 10 4C9.70532 4 9.4227 3.89464 9.21433 3.70711C9.00595 3.51957 8.88889 3.26522 8.88889 3C8.88889 2.73478 9.00595 2.48043 9.21433 2.29289C9.4227 2.10536 9.70532 2 10 2ZM17.7778 2H13.1333C12.6667 0.84 11.4444 0 10 0C8.55556 0 7.33333 0.84 6.86667 2H2.22222C1.63285 2 1.06762 2.21071 0.650874 2.58579C0.234126 2.96086 0 3.46957 0 4V18C0 18.5304 0.234126 19.0391 0.650874 19.4142C1.06762 19.7893 1.63285 20 2.22222 20H17.7778C18.3671 20 18.9324 19.7893 19.3491 19.4142C19.7659 19.0391 20 18.5304 20 18V4C20 3.46957 19.7659 2.96086 19.3491 2.58579C18.9324 2.21071 18.3671 2 17.7778 2Z"
    />
  </symbol>

  <symbol viewBox="0 0 16 31" id="chevron-left">
    <path
      d="M14.7144 29.9683L1.00007 15.4841L14.7144 1"
      stroke-linecap="round"
      stroke-linejoin="round"
    />
  </symbol>

  <symbol viewBox="0 0 21 21" id="facebook">
    <path
      d="M19.8437 0C20.1562 0 20.424 0.111607 20.6473 0.334821C20.8705 0.558035 20.9821 0.825892 20.9821 1.13839V19.433C20.9821 19.7455 20.8705 20.0134 20.6473 20.2366C20.424 20.4598 20.1562 20.5714 19.8437 20.5714H14.6071V12.6027H17.2723L17.674 9.49554H14.6071V7.51339C14.6071 7.01339 14.7098 6.63839 14.9151 6.38839C15.1294 6.13839 15.5401 6.01339 16.1473 6.01339L17.7812 6V3.22768C17.2187 3.14732 16.424 3.10714 15.3973 3.10714C14.183 3.10714 13.2098 3.46429 12.4776 4.17857C11.7544 4.89286 11.3928 5.90179 11.3928 7.20536V9.49554H8.71422V12.6027H11.3928V20.5714H1.54904C1.23654 20.5714 0.96868 20.4598 0.745466 20.2366C0.522252 20.0134 0.410645 19.7455 0.410645 19.433V1.13839C0.410645 0.825892 0.522252 0.558035 0.745466 0.334821C0.96868 0.111607 1.23654 0 1.54904 0H19.8437Z"
    />
  </symbol>

  <symbol viewBox="0 0 21 21" id="instagram">
    <path
      d="M13.1205 12.7098C13.7901 12.0402 14.1249 11.2321 14.1249 10.2857C14.1249 9.33929 13.7901 8.53125 13.1205 7.86161C12.4508 7.19196 11.6428 6.85714 10.6964 6.85714C9.74993 6.85714 8.94189 7.19196 8.27225 7.86161C7.60261 8.53125 7.26779 9.33929 7.26779 10.2857C7.26779 11.2321 7.60261 12.0402 8.27225 12.7098C8.94189 13.3795 9.74993 13.7143 10.6964 13.7143C11.6428 13.7143 12.4508 13.3795 13.1205 12.7098ZM14.433 6.54911C15.4598 7.57589 15.9731 8.82143 15.9731 10.2857C15.9731 11.75 15.4598 12.9955 14.433 14.0223C13.4062 15.0491 12.1606 15.5625 10.6964 15.5625C9.23207 15.5625 7.98654 15.0491 6.95975 14.0223C5.93297 12.9955 5.41957 11.75 5.41957 10.2857C5.41957 8.82143 5.93297 7.57589 6.95975 6.54911C7.98654 5.52232 9.23207 5.00893 10.6964 5.00893C12.1606 5.00893 13.4062 5.52232 14.433 6.54911ZM17.058 3.92411C17.299 4.16518 17.4196 4.45536 17.4196 4.79464C17.4196 5.13393 17.299 5.42411 17.058 5.66518C16.8169 5.90625 16.5267 6.02679 16.1874 6.02679C15.8481 6.02679 15.558 5.90625 15.3169 5.66518C15.0758 5.42411 14.9553 5.13393 14.9553 4.79464C14.9553 4.45536 15.0758 4.16518 15.3169 3.92411C15.558 3.68304 15.8481 3.5625 16.1874 3.5625C16.5267 3.5625 16.8169 3.68304 17.058 3.92411ZM11.7142 1.84822C11.0981 1.84822 10.7589 1.84822 10.6964 1.84822C10.6339 1.84822 10.2901 1.84822 9.66511 1.84822C9.04904 1.83929 8.58029 1.83929 8.25886 1.84822C7.93743 1.84822 7.5044 1.86161 6.95975 1.88839C6.42404 1.90625 5.96422 1.95089 5.58029 2.02232C5.20529 2.08482 4.88832 2.16518 4.6294 2.26339C4.18297 2.44196 3.79011 2.70089 3.45082 3.04018C3.11154 3.37946 2.85261 3.77232 2.67404 4.21875C2.57582 4.47768 2.491 4.79911 2.41957 5.18304C2.35707 5.55804 2.31243 6.01786 2.28564 6.5625C2.26779 7.09822 2.25439 7.52679 2.24547 7.84822C2.24547 8.16964 2.24547 8.64286 2.24547 9.26786C2.25439 9.88393 2.25886 10.2232 2.25886 10.2857C2.25886 10.3482 2.25439 10.692 2.24547 11.317C2.24547 11.933 2.24547 12.4018 2.24547 12.7232C2.25439 13.0446 2.26779 13.4777 2.28564 14.0223C2.31243 14.558 2.35707 15.0179 2.41957 15.4018C2.491 15.7768 2.57582 16.0938 2.67404 16.3527C2.85261 16.7991 3.11154 17.192 3.45082 17.5312C3.79011 17.8705 4.18297 18.1295 4.6294 18.308C4.88832 18.4063 5.20529 18.4911 5.58029 18.5625C5.96422 18.625 6.42404 18.6696 6.95975 18.6964C7.5044 18.7143 7.93743 18.7277 8.25886 18.7366C8.58029 18.7366 9.04904 18.7366 9.66511 18.7366C10.2901 18.7277 10.6339 18.7232 10.6964 18.7232C10.7589 18.7232 11.0981 18.7277 11.7142 18.7366C12.3392 18.7366 12.8124 18.7366 13.1339 18.7366C13.4553 18.7277 13.8839 18.7143 14.4196 18.6964C14.9642 18.6696 15.424 18.625 15.799 18.5625C16.183 18.4911 16.5044 18.4063 16.7633 18.308C17.2098 18.1295 17.6026 17.8705 17.9419 17.5312C18.2812 17.192 18.5401 16.7991 18.7187 16.3527C18.8169 16.0938 18.8973 15.7768 18.9598 15.4018C19.0312 15.0179 19.0758 14.558 19.0937 14.0223C19.1205 13.4777 19.1339 13.0446 19.1339 12.7232C19.1428 12.4018 19.1428 11.933 19.1339 11.317C19.1339 10.692 19.1339 10.3482 19.1339 10.2857C19.1339 10.2232 19.1339 9.88393 19.1339 9.26786C19.1428 8.64286 19.1428 8.16964 19.1339 7.84822C19.1339 7.52679 19.1205 7.09822 19.0937 6.5625C19.0758 6.01786 19.0312 5.55804 18.9598 5.18304C18.8973 4.79911 18.8169 4.47768 18.7187 4.21875C18.5401 3.77232 18.2812 3.37946 17.9419 3.04018C17.6026 2.70089 17.2098 2.44196 16.7633 2.26339C16.5044 2.16518 16.183 2.08482 15.799 2.02232C15.424 1.95089 14.9642 1.90625 14.4196 1.88839C13.8839 1.86161 13.4553 1.84822 13.1339 1.84822C12.8124 1.83929 12.3392 1.83929 11.7142 1.84822ZM20.9151 6.04018C20.9598 6.82589 20.9821 8.24107 20.9821 10.2857C20.9821 12.3304 20.9598 13.7455 20.9151 14.5312C20.8258 16.3884 20.2723 17.8259 19.2544 18.8438C18.2365 19.8616 16.799 20.4152 14.9419 20.5045C14.1562 20.5491 12.741 20.5714 10.6964 20.5714C8.65172 20.5714 7.23654 20.5491 6.45082 20.5045C4.59368 20.4152 3.15618 19.8616 2.13832 18.8438C1.12047 17.8259 0.566895 16.3884 0.477609 14.5312C0.432966 13.7455 0.410645 12.3304 0.410645 10.2857C0.410645 8.24107 0.432966 6.82589 0.477609 6.04018C0.566895 4.18304 1.12047 2.74554 2.13832 1.72768C3.15618 0.709821 4.59368 0.15625 6.45082 0.0669651C7.23654 0.0223217 8.65172 0 10.6964 0C12.741 0 14.1562 0.0223217 14.9419 0.0669651C16.799 0.15625 18.2365 0.709821 19.2544 1.72768C20.2723 2.74554 20.8258 4.18304 20.9151 6.04018Z"
    />
  </symbol>

  <symbol viewBox="0 0 25 20" id="letter">
    <path
      d="M22.5 5L12.5 11.25L2.5 5V2.5L12.5 8.75L22.5 2.5V5ZM22.5 0H2.5C1.1125 0 0 1.1125 0 2.5V17.5C0 18.163 0.263392 18.7989 0.732233 19.2678C1.20107 19.7366 1.83696 20 2.5 20H22.5C23.163 20 23.7989 19.7366 24.2678 19.2678C24.7366 18.7989 25 18.163 25 17.5V2.5C25 1.83696 24.7366 1.20107 24.2678 0.732233C23.7989 0.263392 23.163 0 22.5 0Z"
    />
  </symbol>

  <symbol viewBox="0 0 23 23" id="phone">
    <path
      d="M4.62556 9.95389C6.46556 13.57 9.43 16.5344 13.0461 18.3744L15.8572 15.5633C16.215 15.2056 16.7133 15.1033 17.1606 15.2439C18.5917 15.7167 20.125 15.9722 21.7222 15.9722C22.0611 15.9722 22.3861 16.1068 22.6257 16.3465C22.8654 16.5861 23 16.9111 23 17.25V21.7222C23 22.0611 22.8654 22.3861 22.6257 22.6257C22.3861 22.8654 22.0611 23 21.7222 23C15.9611 23 10.436 20.7114 6.36229 16.6377C2.28858 12.564 0 7.03887 0 1.27778C0 0.93889 0.134623 0.613882 0.374252 0.374252C0.613882 0.134623 0.93889 0 1.27778 0H5.75C6.08889 0 6.4139 0.134623 6.65353 0.374252C6.89316 0.613882 7.02778 0.93889 7.02778 1.27778C7.02778 2.875 7.28333 4.40833 7.75611 5.83944C7.89667 6.28667 7.79444 6.785 7.43667 7.14278L4.62556 9.95389Z"
    />
  </symbol>

  <symbol viewBox="0 0 24 24" id="search">
    <path
      d="M8.91429 0C11.2785 0 13.5459 0.939181 15.2176 2.61093C16.8894 4.28269 17.8286 6.55007 17.8286 8.91429C17.8286 11.1223 17.0194 13.152 15.6891 14.7154L16.0594 15.0857H17.1429L24 21.9429L21.9429 24L15.0857 17.1429V16.0594L14.7154 15.6891C13.0979 17.0699 11.041 17.8284 8.91429 17.8286C6.55007 17.8286 4.28269 16.8894 2.61093 15.2176C0.939181 13.5459 0 11.2785 0 8.91429C0 6.55007 0.939181 4.28269 2.61093 2.61093C4.28269 0.939181 6.55007 0 8.91429 0ZM8.91429 2.74286C5.48571 2.74286 2.74286 5.48571 2.74286 8.91429C2.74286 12.3429 5.48571 15.0857 8.91429 15.0857C12.3429 15.0857 15.0857 12.3429 15.0857 8.91429C15.0857 5.48571 12.3429 2.74286 8.91429 2.74286Z"
    />
  </symbol>

  <symbol viewBox="0 0 20 20" id="star">
    <path
      d="M10.2681 15.6517L10 15.4813L9.73187 15.6517L4.56701 18.933L5.93829 12.7076L6.0004 12.4256L5.78724 12.2309L1.1742 8.01653L7.2352 7.46637L7.53946 7.43876L7.65372 7.15541L10 1.33695L12.3463 7.15541L12.4605 7.43876L12.7648 7.46637L18.8244 8.0164L14.2031 12.2305L13.9892 12.4256L14.0518 12.7082L15.4311 18.9319L10.2681 15.6517Z"
    />
  </symbol>

  <symbol viewBox="0 0 23 23" id="twitch">
    <path
      d="M11.4107 6.09815V11.9106H9.46875V6.09815H11.4107ZM16.7411 6.09815V11.9106H14.7991V6.09815H16.7411ZM16.7411 16.2767L20.1295 12.8749V2.22761H4.13839V16.2767H8.50447V19.183L11.4107 16.2767H16.7411ZM22.0714 0.285645V13.8526L16.2589 19.6651H11.8929L8.98661 22.5714H6.08036V19.6651H0.75V4.15618L2.20982 0.285645H22.0714Z"
    />
  </symbol>

  <symbol viewBox="0 0 22 18" id="twitter">
    <path
      d="M21.1071 2.75007C20.5089 3.62507 19.7857 4.3706 18.9375 4.98668C18.9464 5.11168 18.9509 5.29918 18.9509 5.54918C18.9509 6.70989 18.7813 7.8706 18.442 9.03132C18.1027 10.1831 17.5848 11.2902 16.8884 12.3527C16.2009 13.4152 15.3795 14.3572 14.4241 15.1786C13.4688 15.9911 12.317 16.6429 10.9688 17.134C9.62054 17.6161 8.17857 17.8572 6.64286 17.8572C4.22321 17.8572 2.00893 17.2099 0 15.9152C0.3125 15.951 0.660714 15.9688 1.04464 15.9688C3.05357 15.9688 4.84375 15.3527 6.41518 14.1206C5.47768 14.1027 4.63839 13.817 3.89732 13.2635C3.15625 12.701 2.64732 11.9867 2.37054 11.1206C2.66518 11.1652 2.9375 11.1876 3.1875 11.1876C3.57143 11.1876 3.95089 11.1385 4.32589 11.0402C3.32589 10.8349 2.49554 10.3394 1.83482 9.55364C1.18304 8.759 0.857143 7.83935 0.857143 6.79471V6.74114C1.46429 7.08043 2.11607 7.26346 2.8125 7.29025C2.22321 6.89739 1.75446 6.384 1.40625 5.75007C1.05804 5.11614 0.883929 4.42864 0.883929 3.68757C0.883929 2.90186 1.08036 2.17418 1.47321 1.50453C2.55357 2.83489 3.86607 3.90185 5.41071 4.70543C6.96429 5.50007 8.625 5.94203 10.3929 6.03132C10.3214 5.69203 10.2857 5.36168 10.2857 5.04025C10.2857 3.84382 10.7054 2.82596 11.5446 1.98668C12.3929 1.13846 13.4152 0.714355 14.6116 0.714355C15.8616 0.714355 16.9152 1.16971 17.7723 2.08043C18.7455 1.89293 19.6607 1.54471 20.5179 1.03578C20.1875 2.06257 19.5536 2.85721 18.6161 3.41971C19.4464 3.33043 20.2768 3.10721 21.1071 2.75007Z"
    />
  </symbol>

  <symbol viewBox="0 0 24 24" id="user">
    <path
      d="M12 0C13.5913 0 15.1174 0.632141 16.2426 1.75736C17.3679 2.88258 18 4.4087 18 6C18 7.5913 17.3679 9.11742 16.2426 10.2426C15.1174 11.3679 13.5913 12 12 12C10.4087 12 8.88258 11.3679 7.75736 10.2426C6.63214 9.11742 6 7.5913 6 6C6 4.4087 6.63214 2.88258 7.75736 1.75736C8.88258 0.632141 10.4087 0 12 0ZM12 15C18.63 15 24 17.685 24 21V24H0V21C0 17.685 5.37 15 12 15Z"
    />
  </symbol>

  <symbol viewBox="0 0 25 18" id="youtube">
    <path
      d="M9.93315 12.3928L16.4153 9.04457L9.93315 5.65618V12.3928ZM12.4108 0.848145C13.9108 0.848145 15.3573 0.870466 16.7501 0.915108C18.1519 0.950822 19.1787 0.991001 19.8305 1.03564L20.8081 1.08922C20.8171 1.08922 20.893 1.09814 21.0358 1.116C21.1787 1.12493 21.2814 1.13832 21.3439 1.15618C21.4064 1.16511 21.509 1.18296 21.6519 1.20975C21.8037 1.23654 21.9331 1.27225 22.0403 1.31689C22.1474 1.36154 22.2724 1.41957 22.4153 1.491C22.5581 1.56243 22.6965 1.65172 22.8305 1.75886C22.9644 1.85707 23.0939 1.97314 23.2189 2.10707C23.2724 2.16064 23.3394 2.24547 23.4198 2.36154C23.509 2.46868 23.6385 2.72761 23.8081 3.13832C23.9867 3.54904 24.1073 3.99993 24.1698 4.491C24.2412 5.06243 24.2948 5.67404 24.3305 6.32582C24.3751 6.96868 24.4019 7.47314 24.4108 7.83922V8.37493V10.1964C24.4198 11.491 24.3394 12.7856 24.1698 14.0803C24.1073 14.5714 23.9956 15.0178 23.8349 15.4196C23.6742 15.8124 23.5314 16.0848 23.4064 16.2365L23.2189 16.4642C23.0939 16.5981 22.9644 16.7187 22.8305 16.8258C22.6965 16.924 22.5581 17.0089 22.4153 17.0803C22.2724 17.1428 22.1474 17.1964 22.0403 17.241C21.9331 17.2856 21.8037 17.3214 21.6519 17.3481C21.509 17.3749 21.4019 17.3973 21.3305 17.4151C21.268 17.424 21.1653 17.4374 21.0224 17.4553C20.8885 17.4642 20.8171 17.4687 20.8081 17.4687C18.5671 17.6383 15.768 17.7231 12.4108 17.7231C10.5626 17.7053 8.95547 17.6785 7.5894 17.6428C6.23225 17.5981 5.3394 17.5624 4.91083 17.5356L4.25458 17.4821L3.77243 17.4285C3.451 17.3839 3.20547 17.3392 3.03583 17.2946C2.87511 17.2499 2.64743 17.1562 2.35279 17.0133C2.06708 16.8705 1.81708 16.6874 1.60279 16.4642C1.54922 16.4106 1.47779 16.3303 1.3885 16.2231C1.30815 16.1071 1.17868 15.8437 1.00011 15.433C0.830469 15.0223 0.714397 14.5714 0.651897 14.0803C0.580469 13.5089 0.522433 12.9017 0.47779 12.2589C0.442076 11.6071 0.419754 11.0981 0.410826 10.7321V10.1964V8.37493C0.401897 7.08029 0.482254 5.78564 0.651897 4.491C0.714397 3.99993 0.826005 3.55797 0.986719 3.16511C1.14743 2.76332 1.29029 2.48654 1.41529 2.33475L1.60279 2.10707C1.72779 1.97314 1.85725 1.85707 1.99118 1.75886C2.12511 1.65172 2.2635 1.56243 2.40636 1.491C2.54922 1.41957 2.67422 1.36154 2.78136 1.31689C2.8885 1.27225 3.0135 1.23654 3.15636 1.20975C3.30815 1.18296 3.41529 1.16511 3.47779 1.15618C3.54029 1.13832 3.64297 1.12493 3.78583 1.116C3.92868 1.09814 4.00458 1.08922 4.0135 1.08922C6.25458 0.928502 9.05368 0.848145 12.4108 0.848145Z"
    />
  </symbol>
</svg>
